# xmcd
#
# Track frame offsets:
#	150
#	13990
#	52993
#	72315
#	87383
#	115627
#	132542
#	166493
#	193201
#	203028
#
# Disc length: 3107 seconds
#
# Revision: 1
# Processed by: cddbd v1.4PL0 Copyright (c) Steve Scherf et al.
# Submitted via: audiograbber 1.80
#
DISCID=900c210a
DTITLE=Кстати да - Некстати
DYEAR=1900
DGENRE=
TTITLE0=Sound check
TTITLE1=Shoobar
TTITLE2=Шлюз
TTITLE3=MX
TTITLE4=Mushrooms (грибы)
TTITLE5=Bozo Nostra
TTITLE6=Turn off
TTITLE7=Run for your life
TTITLE8=Менуэт-то
TTITLE9=Dark walk
EXTD=
EXTT0=
EXTT1=
EXTT2=
EXTT3=
EXTT4=
EXTT5=
EXTT6=
EXTT7=
EXTT8=
EXTT9=
PLAYORDER=
